<svg width="13" height="13" viewBox="0 0 13 13" fill="none" xmlns="http://www.w3.org/2000/svg">
<path d="M2.95831 12.875C2.56873 12.875 2.23534 12.7364 1.95815 12.4592C1.68048 12.1815 1.54165 11.8479 1.54165 11.4583V2.25C1.34095 2.25 1.1726 2.18224 1.0366 2.04671C0.901077 1.91071 0.833313 1.74236 0.833313 1.54167C0.833313 1.34097 0.901077 1.17263 1.0366 1.03663C1.1726 0.901097 1.34095 0.833333 1.54165 0.833333H4.37498C4.37498 0.632639 4.44298 0.464292 4.57898 0.328292C4.71451 0.192764 4.88262 0.125 5.08331 0.125H7.91665C8.11734 0.125 8.28569 0.192764 8.42169 0.328292C8.55722 0.464292 8.62498 0.632639 8.62498 0.833333H11.4583C11.659 0.833333 11.8271 0.901097 11.9626 1.03663C12.0986 1.17263 12.1666 1.34097 12.1666 1.54167C12.1666 1.74236 12.0986 1.91071 11.9626 2.04671C11.8271 2.18224 11.659 2.25 11.4583 2.25V11.4583C11.4583 11.8479 11.3197 12.1815 11.0425 12.4592C10.7649 12.7364 10.4312 12.875 10.0416 12.875H2.95831ZM2.95831 2.25V11.4583H10.0416V2.25H2.95831ZM4.37498 9.33333C4.37498 9.53403 4.44298 9.70214 4.57898 9.83767C4.71451 9.97367 4.88262 10.0417 5.08331 10.0417C5.28401 10.0417 5.45235 9.97367 5.58835 9.83767C5.72388 9.70214 5.79165 9.53403 5.79165 9.33333V4.375C5.79165 4.17431 5.72388 4.00596 5.58835 3.86996C5.45235 3.73443 5.28401 3.66667 5.08331 3.66667C4.88262 3.66667 4.71451 3.73443 4.57898 3.86996C4.44298 4.00596 4.37498 4.17431 4.37498 4.375V9.33333ZM7.20831 9.33333C7.20831 9.53403 7.27631 9.70214 7.41231 9.83767C7.54784 9.97367 7.71595 10.0417 7.91665 10.0417C8.11734 10.0417 8.28569 9.97367 8.42169 9.83767C8.55722 9.70214 8.62498 9.53403 8.62498 9.33333V4.375C8.62498 4.17431 8.55722 4.00596 8.42169 3.86996C8.28569 3.73443 8.11734 3.66667 7.91665 3.66667C7.71595 3.66667 7.54784 3.73443 7.41231 3.86996C7.27631 4.00596 7.20831 4.17431 7.20831 4.375V9.33333ZM2.95831 2.25V11.4583V2.25Z" fill="black"/>
</svg>
