<svg width="28" height="27" viewBox="0 0 28 27" fill="none" xmlns="http://www.w3.org/2000/svg">
<path d="M26.9227 4.9952L14.1727 0.745199C14.061 0.705702 13.9391 0.705702 13.8274 0.745199L1.07737 4.9952H1.02425L0.971121 5.02176H0.944559L0.878153 5.07489C0.85159 5.08817 0.838309 5.11473 0.811746 5.14129C0.785184 5.16786 0.798465 5.15457 0.798465 5.16786L0.771902 5.22098C0.767097 5.22637 0.763441 5.23268 0.761157 5.23953C0.758874 5.24639 0.758011 5.25363 0.758621 5.26082C0.74534 5.27411 0.74534 5.30067 0.732059 5.31395V5.35379C0.721164 5.38351 0.716639 5.41518 0.718777 5.44676V16.0718C0.718777 16.2127 0.774748 16.3478 0.874377 16.4474C0.974006 16.547 1.10913 16.603 1.25003 16.603C1.39092 16.603 1.52605 16.547 1.62568 16.4474C1.72531 16.3478 1.78128 16.2127 1.78128 16.0718V6.24364L7.61175 8.1827C6.8917 9.14686 6.39976 10.2618 6.17296 11.4436C5.94615 12.6254 5.9904 13.8432 6.30237 15.0054C6.61434 16.1676 7.1859 17.2439 7.97402 18.1533C8.76214 19.0627 9.74629 19.7814 10.8524 20.2554C7.93271 21.0298 5.40505 22.8617 3.76018 25.3952C3.68269 25.5132 3.65525 25.6572 3.68389 25.7954C3.71253 25.9336 3.79492 26.0548 3.91292 26.1323C4.03092 26.2098 4.17487 26.2372 4.3131 26.2086C4.45134 26.18 4.57253 26.0976 4.65003 25.9796C5.66327 24.4229 7.04914 23.1439 8.6819 22.2585C10.3147 21.3731 12.1426 20.9093 14 20.9093C15.8574 20.9093 17.6854 21.3731 19.3182 22.2585C20.9509 23.1439 22.3368 24.4229 23.35 25.9796C23.4 26.0533 23.4673 26.1137 23.546 26.1554C23.6248 26.197 23.7125 26.2188 23.8016 26.2186C23.9063 26.2187 24.0084 26.1862 24.0938 26.1257C24.2091 26.0474 24.289 25.927 24.3163 25.7903C24.3436 25.6537 24.3162 25.5118 24.2399 25.3952C22.595 22.8617 20.0673 21.0298 17.1477 20.2554C18.2538 19.7814 19.2379 19.0627 20.026 18.1533C20.8141 17.2439 21.3857 16.1676 21.6977 15.0054C22.0096 13.8432 22.0539 12.6254 21.8271 11.4436C21.6003 10.2618 21.1084 9.14686 20.3883 8.1827L26.9227 6.00457C27.029 5.96964 27.1215 5.90204 27.1871 5.81142C27.2527 5.72079 27.288 5.61177 27.288 5.49989C27.288 5.38801 27.2527 5.27898 27.1871 5.18836C27.1215 5.09773 27.029 5.03013 26.9227 4.9952ZM20.9063 12.9374C20.9064 14.0453 20.64 15.1371 20.1294 16.1204C19.6189 17.1037 18.8793 17.9498 17.973 18.5872C17.0668 19.2246 16.0205 19.6345 14.9224 19.7825C13.8244 19.9305 12.7069 19.8121 11.6642 19.4374C10.6216 19.0627 9.68438 18.4426 8.93175 17.6295C8.17913 16.8164 7.63317 15.8342 7.33998 14.7657C7.04678 13.6973 7.01496 12.574 7.24718 11.4906C7.47941 10.4073 7.96887 9.3957 8.67425 8.54129L13.8274 10.2546L14 10.2811L14.1727 10.2546L19.3258 8.54129C20.3502 9.7769 20.9094 11.3323 20.9063 12.9374ZM19.3125 7.41239L14 9.19207L2.92346 5.49989L14 1.8077L25.0766 5.49989L19.3125 7.41239Z" fill="white"/>
</svg>
